<svg width="40" height="40" viewBox="0 0 40 40" fill="none" xmlns="http://www.w3.org/2000/svg">
<path d="M23.25 20L18 17V23L23.25 20Z" fill="#EEBBC3"/>
<path fill-rule="evenodd" clip-rule="evenodd" d="M0 20C0 8.95431 8.95431 0 20 0C31.0457 0 40 8.95431 40 20C40 31.0457 31.0457 40 20 40C8.95431 40 0 31.0457 0 20ZM27.75 13.375C28.625 13.625 29.25 14.25 29.5 15.125C30 16.75 30 20 30 20C30 20 30 23.25 29.625 24.875C29.375 25.75 28.75 26.375 27.875 26.625C26.25 27 20 27 20 27C20 27 13.625 27 12.125 26.625C11.25 26.375 10.625 25.75 10.375 24.875C10 23.25 10 20 10 20C10 20 10 16.75 10.25 15.125C10.5 14.25 11.125 13.625 12 13.375C13.625 13 19.875 13 19.875 13C19.875 13 26.25 13 27.75 13.375Z" fill="#EEBBC3"/>
</svg>
