<svg width="24" height="24" viewBox="0 0 24 24" fill="none" xmlns="http://www.w3.org/2000/svg">
<path d="M14.5299 9.46992L9.46992 14.5299C8.81992 13.8799 8.41992 12.9899 8.41992 11.9999C8.41992 10.0199 10.0199 8.41992 11.9999 8.41992C12.9899 8.41992 13.8799 8.81992 14.5299 9.46992Z" stroke="#52536D" stroke-width="1.5" stroke-linecap="round" stroke-linejoin="round"/>
<path d="M17.8198 5.76986C16.0698 4.44986 14.0698 3.72986 11.9998 3.72986C8.46984 3.72986 5.17984 5.80986 2.88984 9.40986C1.98984 10.8199 1.98984 13.1899 2.88984 14.5999C3.67984 15.8399 4.59984 16.9099 5.59984 17.7699" stroke="#52536D" stroke-width="1.5" stroke-linecap="round" stroke-linejoin="round"/>
<path d="M8.41992 19.5303C9.55992 20.0103 10.7699 20.2703 11.9999 20.2703C15.5299 20.2703 18.8199 18.1903 21.1099 14.5903C22.0099 13.1803 22.0099 10.8103 21.1099 9.4003C20.7799 8.8803 20.4199 8.3903 20.0499 7.9303" stroke="#52536D" stroke-width="1.5" stroke-linecap="round" stroke-linejoin="round"/>
<path d="M15.5099 12.7002C15.2499 14.1102 14.0999 15.2602 12.6899 15.5202" stroke="#52536D" stroke-width="1.5" stroke-linecap="round" stroke-linejoin="round"/>
<path d="M9.47 14.5298L2 21.9998" stroke="#52536D" stroke-width="1.5" stroke-linecap="round" stroke-linejoin="round"/>
<path d="M21.9998 1.99988L14.5298 9.46988" stroke="#52536D" stroke-width="1.5" stroke-linecap="round" stroke-linejoin="round"/>
</svg>
