<svg width="24" height="24" viewBox="0 0 24 24" fill="none" xmlns="http://www.w3.org/2000/svg">
<path d="M15.5799 11.9999C15.5799 13.9799 13.9799 15.5799 11.9999 15.5799C10.0199 15.5799 8.41992 13.9799 8.41992 11.9999C8.41992 10.0199 10.0199 8.41992 11.9999 8.41992C13.9799 8.41992 15.5799 10.0199 15.5799 11.9999Z" stroke="#52536D" stroke-width="1.5" stroke-linecap="round" stroke-linejoin="round"/>
<path d="M11.9998 20.2703C15.5298 20.2703 18.8198 18.1903 21.1098 14.5903C22.0098 13.1803 22.0098 10.8103 21.1098 9.40034C18.8198 5.80034 15.5298 3.72034 11.9998 3.72034C8.46984 3.72034 5.17984 5.80034 2.88984 9.40034C1.98984 10.8103 1.98984 13.1803 2.88984 14.5903C5.17984 18.1903 8.46984 20.2703 11.9998 20.2703Z" stroke="#52536D" stroke-width="1.5" stroke-linecap="round" stroke-linejoin="round"/>
</svg>
