<svg width="50" height="50" viewBox="0 0 50 50" fill="none" xmlns="http://www.w3.org/2000/svg">
<path d="M35.4167 47.3958H14.5834C5.39585 47.3958 2.60419 44.6042 2.60419 35.4167V14.5833C2.60419 5.39582 5.39585 2.60416 14.5834 2.60416H17.7084C21.3542 2.60416 22.5 3.79166 23.9584 5.72916L27.0834 9.89582C27.7709 10.8125 27.875 10.9375 29.1667 10.9375H35.4167C44.6042 10.9375 47.3959 13.7292 47.3959 22.9167V35.4167C47.3959 44.6042 44.6042 47.3958 35.4167 47.3958ZM14.5834 5.72916C7.12502 5.72916 5.72919 7.14582 5.72919 14.5833V35.4167C5.72919 42.8542 7.12502 44.2708 14.5834 44.2708H35.4167C42.875 44.2708 44.2709 42.8542 44.2709 35.4167V22.9167C44.2709 15.4792 42.875 14.0625 35.4167 14.0625H29.1667C26.5 14.0625 25.625 13.1458 24.5834 11.7708L21.4584 7.60416C20.375 6.16666 20.0417 5.72916 17.7084 5.72916H14.5834Z" fill="#292D32"/>
<path d="M41.6667 14.8542C40.8125 14.8542 40.1042 14.1458 40.1042 13.2917V10.4167C40.1042 7.12499 38.7084 5.72916 35.4167 5.72916H16.6667C15.8125 5.72916 15.1042 5.02082 15.1042 4.16666C15.1042 3.31249 15.8125 2.60416 16.6667 2.60416H35.4167C40.4584 2.60416 43.2292 5.37499 43.2292 10.4167V13.2917C43.2292 14.1458 42.5209 14.8542 41.6667 14.8542Z" fill="#292D32"/>
</svg>
