<svg width="40" height="40" viewBox="0 0 40 40" fill="none" xmlns="http://www.w3.org/2000/svg">
<path fill-rule="evenodd" clip-rule="evenodd" d="M0 20C0 8.95431 8.95431 0 20 0C31.0457 0 40 8.95431 40 20C40 31.0457 31.0457 40 20 40C8.95431 40 0 31.0457 0 20ZM10 20.2094C10 14.7048 14.4648 10.24 19.9694 10.24C25.474 10.24 29.9388 14.7048 30 20.2094C30 24.6131 27.1865 28.344 23.211 29.6895C22.7217 29.7507 22.5382 29.4449 22.5382 29.2002V26.448C22.5382 25.5305 22.2324 24.9189 21.8655 24.6131C24.0673 24.3684 26.3914 23.5733 26.3914 19.7201C26.3914 18.6192 25.9633 17.7018 25.3517 17.029C25.3565 17.0098 25.3632 16.9857 25.3712 16.9569C25.4649 16.6191 25.7365 15.6389 25.2293 14.399C25.2293 14.399 24.3731 14.1544 22.477 15.4388C21.682 15.2553 20.8257 15.133 19.9694 15.133C19.1132 15.133 18.2569 15.1941 17.4618 15.4388C15.5657 14.1544 14.7095 14.399 14.7095 14.399C14.1689 15.7204 14.5131 16.7468 14.5836 16.9571L14.5872 16.9678C13.9143 17.7018 13.5474 18.558 13.5474 19.659C13.5474 23.5122 15.8716 24.3684 18.0734 24.6131C17.8288 24.8577 17.523 25.2859 17.4618 25.9587C16.9113 26.2033 15.5046 26.6314 14.5872 25.1024C14.5872 25.1024 14.0367 24.1238 13.0581 24.0626C13.0581 24.0626 12.0795 24.0626 12.997 24.6743C12.997 24.6743 13.6697 24.9801 14.0978 26.1421C14.0978 26.1421 14.7095 28.0993 17.4618 27.4877V29.2002C17.4618 29.4449 17.2783 29.7507 16.789 29.6895C12.8746 28.344 10 24.6131 10 20.2094Z" fill="#EEBBC3"/>
</svg>
